<svg xmlns="http://www.w3.org/2000/svg" height="144px" width="144px" viewBox="0 0 144 144">
    <ellipse cx="72" cy="72" rx="70" ry="70" stroke-width="4" stroke="#4595DF" fill="#4595DF" stroke-linejoin="miter">
    </ellipse>
    <g transform="matrix(1 0 0 1 20 -5)">
        <path fill="#9F2A2A" stroke="#9F2A2A" stroke-width="2" d="M109.741211 110.070908L109.741211 110.070908Q111.267090 110.070908 111.267090 112.237656Q111.267090 114.404404 110.473633 115.808212Q109.680176 117.212021 108.642578 118.371689Q107.604980 119.531357 106.018066 120.568954L106.018066 120.568954Q102.294922 123.010361 98.175049 123.010361Q94.055176 123.010361 91.644287 122.003281Q89.233398 120.996201 87.463379 118.982040L87.463379 118.982040Q83.679199 114.770615 83.679199 107.324326L83.679199 107.324326Q83.679199 99.389755 86.730957 87.945663Q89.782715 76.501572 92.620850 68.353378Q95.458984 60.205185 98.449707 52.819931L98.449707 52.819931L103.942871 38.842880Q94.909668 46.960556 81.054688 72.961533L81.054688 72.961533L66.284180 100.915634Q54.443359 123.010361 49.377441 123.010361L49.377441 123.010361Q44.433594 123.010361 42.602539 118.737900L42.602539 118.737900Q40.954590 114.648544 40.954590 104.852402Q40.954590 95.056259 42.510986 86.053574Q44.067383 77.050888 46.447754 68.444931L46.447754 68.444931Q50.598145 53.247177 57.189941 38.293564L57.189941 38.293564Q50.781250 41.894638 42.968750 54.345810L42.968750 54.345810Q36.987305 64.294540 34.545898 68.872177L34.545898 68.872177L18.798828 97.863876Q8.972168 115.747177 2.990723 119.958603L2.990723 119.958603Q-1.342773 123.010361-6.347656 123.010361L-6.347656 123.010361Q-10.620117 123.010361-12.512207 120.324814L-12.512207 120.324814Q-13.244629 119.226181-13.244629 118.310654Q-13.244629 117.395126-12.695313 117.212021L-12.695313 117.212021Q-8.911133 116.174423-7.354736 115.045273Q-5.798340 113.916122-4.272461 112.725937Q-2.746582 111.535751 0.183105 107.660019Q3.112793 103.784286 6.530762 98.321640Q9.948730 92.858994 13.671875 86.084091L13.671875 86.084091L21.423340 71.801865Q32.165527 51.049911 43.884277 38.537704L43.884277 38.537704Q48.034668 34.082138 52.062988 31.640732L52.062988 31.640732Q56.091309 28.772079 61.401367 27.795517L61.401367 27.795517Q62.866211 27.490341 64.117432 27.490341Q65.368652 27.490341 66.925049 27.856552Q68.481445 28.222763 69.641113 29.016220L69.641113 29.016220Q72.326660 30.847275 71.228027 33.899033L71.228027 33.899033Q70.739746 35.730087 69.335938 39.392197L69.335938 39.392197L66.040039 48.120224Q54.504395 79.980576 53.405762 106.103622L53.405762 106.103622Q56.640625 100.549423 59.936523 93.957626L59.936523 93.957626L66.833496 80.346786L74.096680 66.491806Q90.881348 35.363876 105.285645 30.847275L105.285645 30.847275Q108.276367 29.870712 110.290527 29.870712Q112.304688 29.870712 113.464355 30.389511Q114.624023 30.908310 115.539551 31.701767L115.539551 31.701767Q117.675781 33.654892 117.004395 35.699570Q116.333008 37.744247 115.234375 40.918076L115.234375 40.918076L106.384277 66.735947L103.210449 76.867783Q97.961426 94.445908 96.984863 103.845322L96.984863 103.845322Q96.618652 107.812607 97.869873 110.040390Q99.121094 112.268173 101.318359 112.268173Q103.515625 112.268173 104.766846 111.932480Q106.018066 111.596786 106.933594 111.169540L106.933594 111.169540L108.520508 110.437119Q109.191895 110.070908 109.741211 110.070908Z">
        </path>
        <path fill="#FFFFFF" stroke="#9F2A2A" stroke-width="2" d="M 103.94287109375 38.84288024902344 C 97.92073822021484 44.25466537475586 90.29134368896484 55.62754821777344 81.0546875 72.96153259277344 L 81.0546875 72.96153259277344 L 66.2841796875 100.91563415527344 C 58.39030075073242 115.64545440673828 52.75471878051758 123.01036071777344 49.37744140625 123.01036071777344 L 49.37744140625 123.01036071777344 C 46.08154296875 123.01036071777344 43.8232421875 121.5862045288086 42.6025390625 118.73789978027344 L 42.6025390625 118.73789978027344 C 41.50390625 116.01166534423828 40.95458984375 111.38316345214844 40.95458984375 104.85240173339844 C 40.95458984375 98.32164001464844 41.473388671875 92.05536651611328 42.510986328125 86.05357360839844 C 43.548583984375 80.0517807006836 44.86083984375 74.18223571777344 46.44775390625 68.44493103027344 L 46.44775390625 68.44493103027344 C 49.21467971801758 58.31309509277344 52.79541015625 48.262638092041016 57.18994140625 38.29356384277344 L 57.18994140625 38.29356384277344 C 52.91748046875 40.694278717041016 48.17708206176758 46.04502868652344 42.96875 54.34580993652344 L 42.96875 54.34580993652344 C 38.98112106323242 60.97829818725586 36.17350387573242 65.82041931152344 34.5458984375 68.87217712402344 L 34.5458984375 68.87217712402344 L 18.798828125 97.86387634277344 C 12.247721672058105 109.78607940673828 6.978353023529053 117.15098571777344 2.990722894668579 119.95860290527344 L 2.990722894668579 119.95860290527344 C 0.10172566026449203 121.99311065673828 -3.0110671520233154 123.01036071777344 -6.347655773162842 123.01036071777344 L -6.347655773162842 123.01036071777344 C -9.195962905883789 123.01036071777344 -11.250813484191895 122.11518096923828 -12.51220703125 120.32481384277344 L -12.51220703125 120.32481384277344 C -13.00048828125 119.59239196777344 -13.24462890625 118.92100524902344 -13.24462890625 118.31065368652344 C -13.24462890625 117.70030212402344 -13.0615234375 117.33409118652344 -12.695313453674316 117.21202087402344 L -12.695313453674316 117.21202087402344 C -10.172526359558105 116.5202865600586 -8.392333984375 115.79804229736328 -7.354735851287842 115.04527282714844 C -6.317138671875 114.2925033569336 -5.289713382720947 113.51939392089844 -4.2724609375 112.72593688964844 C -3.2552082538604736 111.93247985839844 -1.7700196504592896 110.24384307861328 0.183105006814003 107.66001892089844 C 2.136230230331421 105.0761947631836 4.2521162033081055 101.9634017944336 6.530762195587158 98.32164001464844 C 8.809408187866211 94.67987823486328 11.189778327941895 90.60069274902344 13.671875 86.08409118652344 L 13.671875 86.08409118652344 L 21.42333984375 71.80186462402344 C 28.58479881286621 57.967227935791016 36.07177734375 46.87917709350586 43.88427734375 38.53770446777344 L 43.88427734375 38.53770446777344 C 46.65120315551758 35.567325592041016 49.37744140625 33.26833724975586 52.06298828125 31.640731811523438 L 52.06298828125 31.640731811523438 C 54.74853515625 29.728296279907227 57.861328125 28.446557998657227 61.4013671875 27.795516967773438 L 61.4013671875 27.795516967773438 C 62.3779296875 27.592065811157227 63.28328323364258 27.490341186523438 64.117431640625 27.490341186523438 C 64.95157623291016 27.490341186523438 65.887451171875 27.612411499023438 66.925048828125 27.856552124023438 C 67.962646484375 28.100692749023438 68.86800384521484 28.48724937438965 69.64111328125 29.016220092773438 L 69.64111328125 29.016220092773438 C 71.43148040771484 30.236923217773438 71.96044921875 31.864526748657227 71.22802734375 33.89903259277344 L 71.22802734375 33.89903259277344 C 70.90250396728516 35.11973571777344 70.27181243896484 36.95079040527344 69.3359375 39.39219665527344 L 69.3359375 39.39219665527344 L 66.0400390625 48.12022399902344 C 58.349609375 69.36045837402344 54.13818359375 88.6882553100586 53.40576171875 106.10362243652344 L 53.40576171875 106.10362243652344 C 55.56233596801758 102.40082550048828 57.7392578125 98.35215759277344 59.9365234375 93.95762634277344 L 59.9365234375 93.95762634277344 L 66.83349609375 80.34678649902344 L 74.0966796875 66.49180603027344 C 85.28646087646484 45.73985290527344 95.68277740478516 33.858341217041016 105.28564453125 30.847274780273438 L 105.28564453125 30.847274780273438 C 107.27945709228516 30.19623374938965 108.94775390625 29.870712280273438 110.29052734375 29.870712280273438 C 111.63330078125 29.870712280273438 112.69124603271484 30.04364585876465 113.46435546875 30.389511108398438 C 114.23746490478516 30.735376358032227 114.92919921875 31.17279624938965 115.53955078125 31.701766967773438 L 115.53955078125 31.701766967773438 C 116.96370697021484 33.003849029541016 117.45199584960938 34.33645248413086 117.00440216064453 35.69956970214844 C 113.93730163574219 35.61376190185547 114.04998779296875 34.99738311767578 111.39129638671875 35.6746826171875 C 107.12823486328125 36.76068115234375 107.6000747680664 36.24912643432617 103.94287109375 38.84288024902344 Z ">
        </path>
    </g>
</svg>
