<svg xmlns="http://www.w3.org/2000/svg" height="144px" width="144px" viewBox="0 0 144 144">
    <defs>
        <radialGradient id="GradientBodyShadow"
                cx="0" cy="0" r="1.5" fx="0.25" fy="0.5">
            <stop offset="0%" stop-color="#4595DF"/>
            <stop offset="50%" stop-color="#5853E4"/>
            <stop offset="100%" stop-color="#4595DF"/>
        </radialGradient>
    </defs>
    <ellipse cx="72" cy="72" rx="66" ry="66" fill="url(#GradientBodyShadow)">
    </ellipse>
    <path fill="#FFFFFF" stroke="url(#GradientBodyShadow)" stroke-width="2" d="M123.94287,33.84288C117.92074,39.25467 110.29134,50.62755 101.05469,67.96153L101.05469,67.96153L86.28418,95.91563C78.3903,110.64545 72.75472,118.01036 69.37744,118.01036L69.37744,118.01036C66.08154,118.01036 63.82324,116.5862 62.60254,113.7379L62.60254,113.7379C61.50391,111.01167 60.95459,106.38316 60.95459,99.8524C60.95459,93.32164 61.47339,87.05537 62.51099,81.05357C63.54858,75.05178 64.86084,69.18224 66.44775,63.44493L66.44775,63.44493C69.21468,53.3131 72.79541,43.26264 77.18994,33.29356L77.18994,33.29356C72.91748,35.69428 68.17708,41.04503 62.96875,49.34581L62.96875,49.34581C58.98112,55.9783 56.1735,60.82042 54.5459,63.87218L54.5459,63.87218L38.79883,92.86388C32.24772,104.78608 26.97835,112.15099 22.99072,114.9586L22.99072,114.9586C20.10173,116.99311 16.98893,118.01036 13.65234,118.01036L13.65234,118.01036C10.80404,118.01036 8.74919,117.11518 7.48779,115.32481L7.48779,115.32481C6.99951,114.59239 6.75537,113.92101 6.75537,113.31065C6.75537,112.7003 6.93848,112.33409 7.30469,112.21202L7.30469,112.21202C9.82747,111.52029 11.60767,110.79804 12.64526,110.04527C13.68286,109.2925 14.71029,108.51939 15.72754,107.72594C16.74479,106.93248 18.22998,105.24384 20.18311,102.66002C22.13623,100.07619 24.25212,96.9634 26.53076,93.32164C28.80941,89.67988 31.18978,85.60069 33.67188,81.08409L33.67188,81.08409L41.42334,66.80186C48.5848,52.96723 56.07178,41.87918 63.88428,33.5377L63.88428,33.5377C66.6512,30.56733 69.37744,28.26834 72.06299,26.64073L72.06299,26.64073C74.74854,24.7283 77.86133,23.44656 81.40137,22.79552L81.40137,22.79552C82.37793,22.59207 83.28328,22.49034 84.11743,22.49034C84.95158,22.49034 85.88745,22.61241 86.92505,22.85655C87.96265,23.10069 88.868,23.48725 89.64111,24.01622L89.64111,24.01622C91.43148,25.23692 91.96045,26.86453 91.22803,28.89903L91.22803,28.89903C90.9025,30.11974 90.27181,31.95079 89.33594,34.3922L89.33594,34.3922L86.04004,43.12022C78.34961,64.36046 74.13818,83.68826 73.40576,101.10362L73.40576,101.10362C75.56234,97.40083 77.73926,93.35216 79.93652,88.95763L79.93652,88.95763L86.8335,75.34679L94.09668,61.49181C105.28646,40.73985 115.68278,28.85834 125.28564,25.84727L125.28564,25.84727C127.27946,25.19623 128.94775,24.87071 130.29053,24.87071C131.6333,24.87071 132.69125,25.04365 133.46436,25.38951C134.23746,25.73538 134.9292,26.1728 135.53955,26.70177L135.53955,26.70177C136.96371,28.00385 137.452,29.33645 137.0044,30.69957C133.9373,30.61376 134.04999,29.99738 131.3913,30.67468C127.12823,31.76068 127.60007,31.24913 123.94287,33.84288z">
    </path>
</svg>
