<svg xmlns="http://www.w3.org/2000/svg" height="152px" width="152px" viewBox="0 0 144 144">
    <defs>
        <radialGradient id="GradientBodyShadow"
                cx="0" cy="0" r="1.5" fx="0.25" fy="0.5">
            <stop offset="0%" stop-color="#4595DF"/>
            <stop offset="50%" stop-color="#5853E4"/>
            <stop offset="100%" stop-color="#4595DF"/>
        </radialGradient>
    </defs>
    <ellipse cx="72" cy="72" rx="66" ry="66" fill="url(#GradientBodyShadow)">
    </ellipse>
    <g transform="matrix(1 0 0 1 20 -5)">
        <path fill="#FFFFFF" stroke="url(#GradientBodyShadow)" stroke-width="2" d="M 103.94287109375 38.84288024902344 C 97.92073822021484 44.25466537475586 90.29134368896484 55.62754821777344 81.0546875 72.96153259277344 L 81.0546875 72.96153259277344 L 66.2841796875 100.91563415527344 C 58.39030075073242 115.64545440673828 52.75471878051758 123.01036071777344 49.37744140625 123.01036071777344 L 49.37744140625 123.01036071777344 C 46.08154296875 123.01036071777344 43.8232421875 121.5862045288086 42.6025390625 118.73789978027344 L 42.6025390625 118.73789978027344 C 41.50390625 116.01166534423828 40.95458984375 111.38316345214844 40.95458984375 104.85240173339844 C 40.95458984375 98.32164001464844 41.473388671875 92.05536651611328 42.510986328125 86.05357360839844 C 43.548583984375 80.0517807006836 44.86083984375 74.18223571777344 46.44775390625 68.44493103027344 L 46.44775390625 68.44493103027344 C 49.21467971801758 58.31309509277344 52.79541015625 48.262638092041016 57.18994140625 38.29356384277344 L 57.18994140625 38.29356384277344 C 52.91748046875 40.694278717041016 48.17708206176758 46.04502868652344 42.96875 54.34580993652344 L 42.96875 54.34580993652344 C 38.98112106323242 60.97829818725586 36.17350387573242 65.82041931152344 34.5458984375 68.87217712402344 L 34.5458984375 68.87217712402344 L 18.798828125 97.86387634277344 C 12.247721672058105 109.78607940673828 6.978353023529053 117.15098571777344 2.990722894668579 119.95860290527344 L 2.990722894668579 119.95860290527344 C 0.10172566026449203 121.99311065673828 -3.0110671520233154 123.01036071777344 -6.347655773162842 123.01036071777344 L -6.347655773162842 123.01036071777344 C -9.195962905883789 123.01036071777344 -11.250813484191895 122.11518096923828 -12.51220703125 120.32481384277344 L -12.51220703125 120.32481384277344 C -13.00048828125 119.59239196777344 -13.24462890625 118.92100524902344 -13.24462890625 118.31065368652344 C -13.24462890625 117.70030212402344 -13.0615234375 117.33409118652344 -12.695313453674316 117.21202087402344 L -12.695313453674316 117.21202087402344 C -10.172526359558105 116.5202865600586 -8.392333984375 115.79804229736328 -7.354735851287842 115.04527282714844 C -6.317138671875 114.2925033569336 -5.289713382720947 113.51939392089844 -4.2724609375 112.72593688964844 C -3.2552082538604736 111.93247985839844 -1.7700196504592896 110.24384307861328 0.183105006814003 107.66001892089844 C 2.136230230331421 105.0761947631836 4.2521162033081055 101.9634017944336 6.530762195587158 98.32164001464844 C 8.809408187866211 94.67987823486328 11.189778327941895 90.60069274902344 13.671875 86.08409118652344 L 13.671875 86.08409118652344 L 21.42333984375 71.80186462402344 C 28.58479881286621 57.967227935791016 36.07177734375 46.87917709350586 43.88427734375 38.53770446777344 L 43.88427734375 38.53770446777344 C 46.65120315551758 35.567325592041016 49.37744140625 33.26833724975586 52.06298828125 31.640731811523438 L 52.06298828125 31.640731811523438 C 54.74853515625 29.728296279907227 57.861328125 28.446557998657227 61.4013671875 27.795516967773438 L 61.4013671875 27.795516967773438 C 62.3779296875 27.592065811157227 63.28328323364258 27.490341186523438 64.117431640625 27.490341186523438 C 64.95157623291016 27.490341186523438 65.887451171875 27.612411499023438 66.925048828125 27.856552124023438 C 67.962646484375 28.100692749023438 68.86800384521484 28.48724937438965 69.64111328125 29.016220092773438 L 69.64111328125 29.016220092773438 C 71.43148040771484 30.236923217773438 71.96044921875 31.864526748657227 71.22802734375 33.89903259277344 L 71.22802734375 33.89903259277344 C 70.90250396728516 35.11973571777344 70.27181243896484 36.95079040527344 69.3359375 39.39219665527344 L 69.3359375 39.39219665527344 L 66.0400390625 48.12022399902344 C 58.349609375 69.36045837402344 54.13818359375 88.6882553100586 53.40576171875 106.10362243652344 L 53.40576171875 106.10362243652344 C 55.56233596801758 102.40082550048828 57.7392578125 98.35215759277344 59.9365234375 93.95762634277344 L 59.9365234375 93.95762634277344 L 66.83349609375 80.34678649902344 L 74.0966796875 66.49180603027344 C 85.28646087646484 45.73985290527344 95.68277740478516 33.858341217041016 105.28564453125 30.847274780273438 L 105.28564453125 30.847274780273438 C 107.27945709228516 30.19623374938965 108.94775390625 29.870712280273438 110.29052734375 29.870712280273438 C 111.63330078125 29.870712280273438 112.69124603271484 30.04364585876465 113.46435546875 30.389511108398438 C 114.23746490478516 30.735376358032227 114.92919921875 31.17279624938965 115.53955078125 31.701766967773438 L 115.53955078125 31.701766967773438 C 116.96370697021484 33.003849029541016 117.45199584960938 34.33645248413086 117.00440216064453 35.69956970214844 C 113.93730163574219 35.61376190185547 114.04998779296875 34.99738311767578 111.39129638671875 35.6746826171875 C 107.12823486328125 36.76068115234375 107.6000747680664 36.24912643432617 103.94287109375 38.84288024902344 Z ">
        </path>
    </g>
</svg>
